<svg width="18" height="12" viewBox="0 0 18 12" fill="none" xmlns="http://www.w3.org/2000/svg">
<path d="M1.20876 7.00501L14.3788 7.00501L11.4988 9.88501C11.1088 10.275 11.1088 10.905 11.4988 11.295C11.6856 11.4823 11.9392 11.5875 12.2038 11.5875C12.4683 11.5875 12.7219 11.4823 12.9088 11.295L17.4988 6.70501C17.8888 6.31501 17.8888 5.68501 17.4988 5.29501L12.9088 0.705008C12.5188 0.315008 11.8888 0.315008 11.4988 0.705008C11.1088 1.09501 11.1088 1.72501 11.4988 2.11501L14.3788 5.00501L1.20876 5.00501C0.658761 5.00501 0.20876 5.45501 0.20876 6.00501C0.20876 6.55501 0.65876 7.00501 1.20876 7.00501Z" fill="white"/>
</svg>
