<svg width="61" height="24" viewBox="0 0 61 24" fill="none" xmlns="http://www.w3.org/2000/svg">
<path d="M3.48828 18H0.640625V5.32031H3.48828V18ZM0.464844 2.02734C0.464844 1.58984 0.601562 1.22656 0.875 0.9375C1.15625 0.648437 1.55469 0.503906 2.07031 0.503906C2.58594 0.503906 2.98438 0.648437 3.26562 0.9375C3.54688 1.22656 3.6875 1.58984 3.6875 2.02734C3.6875 2.45703 3.54688 2.81641 3.26562 3.10547C2.98438 3.38672 2.58594 3.52734 2.07031 3.52734C1.55469 3.52734 1.15625 3.38672 0.875 3.10547C0.601562 2.81641 0.464844 2.45703 0.464844 2.02734ZM6.875 18V0.9375H11.9141C13.4219 0.9375 14.7578 1.27344 15.9219 1.94531C17.0938 2.61719 18 3.57031 18.6406 4.80469C19.2812 6.03906 19.6016 7.45312 19.6016 9.04688V9.90234C19.6016 11.5195 19.2773 12.9414 18.6289 14.168C17.9883 15.3945 17.0703 16.3398 15.875 17.0039C14.6875 17.668 13.3242 18 11.7852 18H6.875ZM9.83984 3.32812V15.6328H11.7734C13.3281 15.6328 14.5195 15.1484 15.3477 14.1797C16.1836 13.2031 16.6094 11.8047 16.625 9.98438V9.03516C16.625 7.18359 16.2227 5.76953 15.418 4.79297C14.6133 3.81641 13.4453 3.32812 11.9141 3.32812H9.83984ZM25.3086 18H22.4609V5.32031H25.3086V18ZM22.2852 2.02734C22.2852 1.58984 22.4219 1.22656 22.6953 0.9375C22.9766 0.648437 23.375 0.503906 23.8906 0.503906C24.4062 0.503906 24.8047 0.648437 25.0859 0.9375C25.3672 1.22656 25.5078 1.58984 25.5078 2.02734C25.5078 2.45703 25.3672 2.81641 25.0859 3.10547C24.8047 3.38672 24.4062 3.52734 23.8906 3.52734C23.375 3.52734 22.9766 3.38672 22.6953 3.10547C22.4219 2.81641 22.2852 2.45703 22.2852 2.02734ZM35.9961 18C35.8711 17.7578 35.7617 17.3633 35.668 16.8164C34.7617 17.7617 33.6523 18.2344 32.3398 18.2344C31.0664 18.2344 30.0273 17.8711 29.2227 17.1445C28.418 16.418 28.0156 15.5195 28.0156 14.4492C28.0156 13.0977 28.5156 12.0625 29.5156 11.3438C30.5234 10.6172 31.9609 10.2539 33.8281 10.2539H35.5742V9.42188C35.5742 8.76562 35.3906 8.24219 35.0234 7.85156C34.6562 7.45312 34.0977 7.25391 33.3477 7.25391C32.6992 7.25391 32.168 7.41797 31.7539 7.74609C31.3398 8.06641 31.1328 8.47656 31.1328 8.97656H28.2852C28.2852 8.28125 28.5156 7.63281 28.9766 7.03125C29.4375 6.42188 30.0625 5.94531 30.8516 5.60156C31.6484 5.25781 32.5352 5.08594 33.5117 5.08594C34.9961 5.08594 36.1797 5.46094 37.0625 6.21094C37.9453 6.95312 38.3984 8 38.4219 9.35156V15.0703C38.4219 16.2109 38.582 17.1211 38.9023 17.8008V18H35.9961ZM32.8672 15.9492C33.4297 15.9492 33.957 15.8125 34.4492 15.5391C34.9492 15.2656 35.3242 14.8984 35.5742 14.4375V12.0469H34.0391C32.9844 12.0469 32.1914 12.2305 31.6602 12.5977C31.1289 12.9648 30.8633 13.4844 30.8633 14.1562C30.8633 14.7031 31.043 15.1406 31.4023 15.4688C31.7695 15.7891 32.2578 15.9492 32.8672 15.9492ZM48.043 7.92188C47.668 7.85938 47.2812 7.82812 46.8828 7.82812C45.5781 7.82812 44.6992 8.32812 44.2461 9.32812V18H41.3984V5.32031H44.1172L44.1875 6.73828C44.875 5.63672 45.8281 5.08594 47.0469 5.08594C47.4531 5.08594 47.7891 5.14062 48.0547 5.25L48.043 7.92188ZM54.4883 13.9219L57.0664 5.32031H60.1016L55.0625 19.9219C54.2891 22.0547 52.9766 23.1211 51.125 23.1211C50.7109 23.1211 50.2539 23.0508 49.7539 22.9102V20.707L50.293 20.7422C51.0117 20.7422 51.5508 20.6094 51.9102 20.3438C52.2773 20.0859 52.5664 19.6484 52.7773 19.0312L53.1875 17.9414L48.7344 5.32031H51.8047L54.4883 13.9219Z" fill="#A10000"/>
</svg>
